 <svg
                    width="17"
                    height="21"
                    viewBox="0 0 17 21"
                    fill="none"
                    xmlns="http://www.w3.org/2000/svg"
                  >
                    <path
                      d="M8.5 0.682373C3.81 0.682373 0 4.49237 0 9.18237C0 13.8724 3.81 17.6824 8.5 17.6824H9V20.6824C13.86 18.3424 17 13.6824 17 9.18237C17 4.49237 13.19 0.682373 8.5 0.682373ZM9.5 15.1824H7.5V13.1824H9.5V15.1824ZM9.5 11.6824H7.5C7.5 8.43237 10.5 8.68237 10.5 6.68237C10.5 5.58237 9.6 4.68237 8.5 4.68237C7.4 4.68237 6.5 5.58237 6.5 6.68237H4.5C4.5 4.47237 6.29 2.68237 8.5 2.68237C10.71 2.68237 12.5 4.47237 12.5 6.68237C12.5 9.18237 9.5 9.43237 9.5 11.6824Z"
                      fill="#f77d00"
                      fill-opacity="0.51"
                    />
                  </svg>