 <svg
                    width="25"
                    height="25"
                    viewBox="0 0 25 25"
                    fill="none"
                    xmlns="http://www.w3.org/2000/svg"
                  >
                    <path
                      d="M23.9202 7.96508C23.918 6.38324 23.3782 4.84912 22.3893 3.61447C21.4005 2.37983 20.0213 1.51801 18.4781 1.17045C16.9349 0.822883 15.3194 1.01022 13.8967 1.70171C12.474 2.39321 11.3286 3.54778 10.6485 4.97596H7.97824V6.96871H5.4873C5.17605 6.96823 4.87241 7.06495 4.61876 7.24536C4.36512 7.42576 4.17413 7.68086 4.07245 7.97504L2 13.9433V21.9143C2 22.1786 2.10497 22.432 2.29183 22.6188C2.47869 22.8057 2.73212 22.9107 2.99637 22.9107H3.99275C4.257 22.9107 4.51043 22.8057 4.69729 22.6188C4.88414 22.432 4.98912 22.1786 4.98912 21.9143V20.9179H16.9456V21.9143C16.9456 22.1786 17.0506 22.432 17.2374 22.6188C17.4243 22.8057 17.6777 22.9107 17.942 22.9107H18.9383C19.2026 22.9107 19.456 22.8057 19.6429 22.6188C19.8297 22.432 19.9347 22.1786 19.9347 21.9143V14.2622C21.1258 13.6959 22.1322 12.8039 22.8375 11.6896C23.5428 10.5752 23.9182 9.2839 23.9202 7.96508ZM5.4873 8.46327H10.0009C10.1152 10.1622 10.8533 11.7591 12.0733 12.9469H3.99275L5.4873 8.46327ZM5.4873 17.9288C5.09092 17.9288 4.71078 17.7713 4.43049 17.4911C4.15021 17.2108 3.99275 16.8306 3.99275 16.4342C3.99275 16.0379 4.15021 15.6577 4.43049 15.3774C4.71078 15.0971 5.09092 14.9397 5.4873 14.9397C5.88369 14.9397 6.26383 15.0971 6.54412 15.3774C6.8244 15.6577 6.98186 16.0379 6.98186 16.4342C6.98186 16.8306 6.8244 17.2108 6.54412 17.4911C6.26383 17.7713 5.88369 17.9288 5.4873 17.9288ZM16.4474 17.9288C16.051 17.9288 15.6709 17.7713 15.3906 17.4911C15.1103 17.2108 14.9528 16.8306 14.9528 16.4342C14.9528 16.0379 15.1103 15.6577 15.3906 15.3774C15.6709 15.0971 16.051 14.9397 16.4474 14.9397C16.8438 14.9397 17.2239 15.0971 17.5042 15.3774C17.7845 15.6577 17.942 16.0379 17.942 16.4342C17.942 16.8306 17.7845 17.2108 17.5042 17.4911C17.2239 17.7713 16.8438 17.9288 16.4474 17.9288ZM19.3668 12.3192L19.1575 12.4288L18.9782 12.5185C18.8412 12.5779 18.7015 12.6311 18.5597 12.6779L18.3405 12.7477L18.1113 12.8075L17.9121 12.8573C17.2311 12.9912 16.5297 12.9813 15.8528 12.8283C15.1759 12.6754 14.5384 12.3827 13.9812 11.969C13.424 11.5553 12.9594 11.0298 12.6171 10.4261C12.2748 9.82238 12.0625 9.15382 11.9936 8.46327C11.9734 8.29798 11.9635 8.1316 11.9637 7.96508L11.9837 7.49678L12.0036 7.3274L12.0434 7.04842L12.0833 6.83918L12.1331 6.62994L12.2029 6.39081L12.2527 6.26128C12.6469 5.15576 13.4196 4.22536 14.4339 3.63476C15.4482 3.04417 16.6388 2.83145 17.7948 3.03427C18.9509 3.23709 19.9979 3.84236 20.7506 4.74296C21.5033 5.64356 21.9131 6.78141 21.9075 7.95512C21.9155 8.84378 21.6838 9.71817 21.2366 10.4862C20.7895 11.2542 20.1435 11.8875 19.3668 12.3192ZM15.9492 3.97959H17.942V8.96145H15.9492V3.97959ZM15.9492 9.95782H17.942V11.9506H15.9492V9.95782Z"
                      fill="#f77d00"
                    />
                  </svg>