<svg width="37" height="37" viewBox="0 0 37 37" fill="none" xmlns="http://www.w3.org/2000/svg">
<rect width="37" height="37" rx="18.5" fill="#EE7201" fill-opacity="0.15"/>
<path d="M24.92 10.01C24.72 9.42 24.16 9 23.5 9H12.5C11.84 9 11.29 9.42 11.08 10.01L9 16V24C9 24.55 9.45 25 10 25H11C11.55 25 12 24.55 12 24V23H24V24C24 24.55 24.45 25 25 25H26C26.55 25 27 24.55 27 24V16L24.92 10.01ZM12.5 20C11.67 20 11 19.33 11 18.5C11 17.67 11.67 17 12.5 17C13.33 17 14 17.67 14 18.5C14 19.33 13.33 20 12.5 20ZM23.5 20C22.67 20 22 19.33 22 18.5C22 17.67 22.67 17 23.5 17C24.33 17 25 17.67 25 18.5C25 19.33 24.33 20 23.5 20ZM11 15L12.5 10.5H23.5L25 15H11Z" fill="#EE7201"/>
<path d="M13 28H17V26L23 29H19V31L13 28Z" fill="#EE7201"/>
</svg>
