<svg width="37" height="37" viewBox="0 0 37 37" fill="none" xmlns="http://www.w3.org/2000/svg">
<rect width="37" height="37" rx="18.5" fill="#EE7201" fill-opacity="0.15"/>
<path d="M25.48 19.35C23.91 15.27 18.32 15.05 19.67 9.12002C19.77 8.68002 19.3 8.34002 18.92 8.57002C15.29 10.71 12.68 15 14.87 20.62C15.05 21.08 14.51 21.51 14.12 21.21C12.31 19.84 12.12 17.87 12.28 16.46C12.34 15.94 11.66 15.69 11.37 16.12C10.69 17.16 10 18.84 10 21.37C10.38 26.97 15.11 28.69 16.81 28.91C19.24 29.22 21.87 28.77 23.76 27.04C25.84 25.11 26.6 22.03 25.48 19.35ZM16.2 24.38C17.64 24.03 18.38 22.99 18.58 22.07C18.91 20.64 17.62 19.24 18.49 16.98C18.82 18.85 21.76 20.02 21.76 22.06C21.84 24.59 19.1 26.76 16.2 24.38Z" fill="#EE7201"/>
</svg>
