<svg width="64" height="64" viewBox="0 0 64 64" fill="none" xmlns="http://www.w3.org/2000/svg">
<circle cx="32" cy="32" r="32" fill="#EE7201" fill-opacity="0.15"/>
<path d="M25.3333 26H22.5V36.5C22.5 38.15 23.775 39.5 25.3333 39.5H38.0833V36.5H25.3333V26Z" fill="#EE7201"/>
<path d="M42.3337 18.5H31.0003C29.442 18.5 28.167 19.85 28.167 21.5V30.5C28.167 32.15 29.442 33.5 31.0003 33.5H42.3337C43.892 33.5 45.167 32.15 45.167 30.5V21.5C45.167 19.85 43.892 18.5 42.3337 18.5ZM42.3337 30.5H31.0003V24.5H42.3337V30.5Z" fill="#EE7201"/>
<path d="M19.6668 32H16.8335V42.5C16.8335 44.15 18.1085 45.5 19.6668 45.5H32.4168V42.5H19.6668V32Z" fill="#EE7201"/>
</svg>
