<svg
                    width="20"
                    height="20"
                    viewBox="0 0 20 20"
                    fill="none"
                    xmlns="http://www.w3.org/2000/svg"
                  >
                    <path
                      d="M18 4.68237H15.82C15.93 4.37237 16 4.03237 16 3.68237C16 2.02237 14.66 0.682373 13 0.682373C11.95 0.682373 11.04 1.22237 10.5 2.03237L10 2.70237L9.5 2.02237C8.96 1.22237 8.05 0.682373 7 0.682373C5.34 0.682373 4 2.02237 4 3.68237C4 4.03237 4.07 4.37237 4.18 4.68237H2C0.89 4.68237 0.00999999 5.57237 0.00999999 6.68237L0 17.6824C0 18.7924 0.89 19.6824 2 19.6824H18C19.11 19.6824 20 18.7924 20 17.6824V6.68237C20 5.57237 19.11 4.68237 18 4.68237ZM13 2.68237C13.55 2.68237 14 3.13237 14 3.68237C14 4.23237 13.55 4.68237 13 4.68237C12.45 4.68237 12 4.23237 12 3.68237C12 3.13237 12.45 2.68237 13 2.68237ZM7 2.68237C7.55 2.68237 8 3.13237 8 3.68237C8 4.23237 7.55 4.68237 7 4.68237C6.45 4.68237 6 4.23237 6 3.68237C6 3.13237 6.45 2.68237 7 2.68237ZM18 17.6824H2V15.6824H18V17.6824ZM18 12.6824H2V6.68237H7.08L5 9.51237L6.62 10.6824L9 7.44237L10 6.08237L11 7.44237L13.38 10.6824L15 9.51237L12.92 6.68237H18V12.6824Z"
                      fill="#f77d00"
                      fill-opacity="0.51"
                    />
                  </svg>