<svg width="37" height="37" viewBox="0 0 37 37" fill="none" xmlns="http://www.w3.org/2000/svg">
<rect width="37" height="37" rx="18.5" fill="#EE7201" fill-opacity="0.15"/>
<path d="M19 13C17.9 13 17 12.1 17 11C17 9.9 17.9 9 19 9C20.1 9 21 9.9 21 11C21 12.1 20.1 13 19 13ZM24 9H26V9.4C25.9 11.6 25.2 13.3 23.7 14.5C23.2 14.9 22.6 15.2 22 15.4V29H20V23H18V29H16V17.1C15.7 17.2 15.5 17.3 15.4 17.4C14.5 18.1 14.01 19 14 20.5V21H12V20.5C12 18.5 12.71 16.91 14.11 15.71C15.21 14.81 17 14 19 14C21 14 21.68 13.54 22.48 12.94C23.48 12.14 24 11 24 9.5V9ZM11 23H14V29H11V23Z" fill="#EE7201"/>
</svg>
