<svg width="37" height="37" viewBox="0 0 37 37" fill="none" xmlns="http://www.w3.org/2000/svg">
<rect width="37" height="37" rx="18.5" fill="#EE7201" fill-opacity="0.15"/>
<path d="M19.49 11.48C20.59 11.48 21.49 10.58 21.49 9.47998C21.49 8.37998 20.59 7.47998 19.49 7.47998C18.39 7.47998 17.49 8.37998 17.49 9.47998C17.49 10.58 18.39 11.48 19.49 11.48ZM15.89 25.38L16.89 20.98L18.99 22.98V28.98H20.99V21.48L18.89 19.48L19.49 16.48C20.79 17.98 22.79 18.98 24.99 18.98V16.98C23.09 16.98 21.49 15.98 20.69 14.58L19.69 12.98C19.29 12.38 18.69 11.98 17.99 11.98C17.69 11.98 17.49 12.08 17.19 12.08L11.99 14.28V18.98H13.99V15.58L15.79 14.88L14.19 22.98L9.29001 21.98L8.89001 23.98L15.89 25.38Z" fill="#EE7201"/>
</svg>
