<svg width="134" height="154" viewBox="0 0 134 154" fill="none" xmlns="http://www.w3.org/2000/svg">
<path fill-rule="evenodd" clip-rule="evenodd" d="M5.99976 67.4991V66.5004C5.99976 33.639 33.0832 7 66.4919 7H67.5077C100.916 7 128 33.639 128 66.5004V67.4991C128 100.361 100.917 127 67.5077 127H66.4919C33.0832 127 5.99976 100.361 5.99976 67.4991Z" fill="#EE7201" fill-opacity="0.25"/>
<path fill-rule="evenodd" clip-rule="evenodd" d="M5.99976 67.4991V66.5004C5.99976 33.639 33.0832 7 66.4919 7H67.5077C100.916 7 128 33.639 128 66.5004V67.4991C128 100.361 100.917 127 67.5077 127H66.4919C33.0832 127 5.99976 100.361 5.99976 67.4991Z" fill="url(#paint0_linear)" fill-opacity="0.15"/>
<path fill-rule="evenodd" clip-rule="evenodd" d="M22.1626 69.6508C22.1046 70.2144 21.9338 70.7613 21.66 71.2602C21.3862 71.7592 21.0147 72.2004 20.5668 72.5588C20.1188 72.9172 19.6032 73.1856 19.0493 73.3488C18.4954 73.5121 17.914 73.5669 17.3385 73.5101C16.763 73.4533 16.2045 73.2861 15.695 73.018C15.1855 72.7498 14.7348 72.3861 14.3689 71.9474C14.0029 71.5088 13.7288 71.0038 13.5621 70.4614C13.3954 69.919 13.3394 69.3498 13.3974 68.7862C13.5145 67.648 14.0885 66.6019 14.9932 65.8782C15.8979 65.1544 17.0591 64.8122 18.2215 64.9269C19.3838 65.0415 20.452 65.6036 21.1911 66.4896C21.9302 67.3755 22.2796 68.5126 22.1626 69.6508Z" fill="white"/>
<path d="M26.7498 77.8174L20.0181 83.44M20.6832 71.4534L26.2617 74.5502L20.6832 71.4534Z" stroke="white" stroke-width="2"/>
<path fill-rule="evenodd" clip-rule="evenodd" d="M22.2265 84.5116C22.1868 84.8975 22.0698 85.2719 21.8823 85.6136C21.6949 85.9552 21.4405 86.2574 21.1337 86.5028C20.827 86.7482 20.4739 86.932 20.0946 87.0437C19.7154 87.1555 19.3173 87.193 18.9232 87.1541C18.5291 87.1152 18.1467 87.0007 17.7978 86.8171C17.449 86.6335 17.1404 86.3844 16.8898 86.0841C16.6392 85.7837 16.4515 85.4379 16.3374 85.0665C16.2233 84.6951 16.185 84.3053 16.2247 83.9194C16.3048 83.1401 16.6979 82.4238 17.3174 81.9282C17.9369 81.4327 18.732 81.1984 19.5279 81.2769C20.3238 81.3554 21.0552 81.7403 21.5613 82.3469C22.0674 82.9536 22.3067 83.7322 22.2265 84.5116ZM31.6541 76.1175C31.6141 76.5062 31.4963 76.8834 31.3075 77.2275C31.1186 77.5716 30.8624 77.876 30.5535 78.1231C30.2445 78.3703 29.8889 78.5554 29.5069 78.668C29.1249 78.7806 28.724 78.8184 28.327 78.7792C27.9301 78.7401 27.5449 78.6247 27.1935 78.4398C26.8421 78.2549 26.5313 78.004 26.2789 77.7015C26.0265 77.3989 25.8374 77.0507 25.7225 76.6766C25.6075 76.3025 25.5689 75.9099 25.6089 75.5212C25.6897 74.7362 26.0856 74.0148 26.7095 73.5156C27.3335 73.0164 28.1343 72.7804 28.936 72.8595C29.7376 72.9386 30.4743 73.3263 30.9841 73.9373C31.4938 74.5483 31.7348 75.3325 31.6541 76.1175ZM53.7039 15.4665L69.5753 15.4597C70.2229 15.4594 70.8438 15.2072 71.3015 14.7586C71.7593 14.31 72.0162 13.7017 72.0159 13.0676C72.0157 12.4335 71.7581 11.8254 71.3 11.3772C70.8419 10.929 70.2208 10.6773 69.5732 10.6776L53.7018 10.6844C53.3811 10.6846 53.0636 10.7466 52.7675 10.8669C52.4713 10.9873 52.2022 11.1635 51.9756 11.3857C51.5179 11.8343 51.261 12.4426 51.2614 13.0768C51.2617 13.7109 51.5193 14.3189 51.9775 14.7671C52.4356 15.2153 53.0568 15.4668 53.7044 15.4665H53.7039ZM59.7747 25.0233L75.6456 25.0165C76.2932 25.0162 76.9141 24.764 77.3719 24.3154C77.8296 23.8668 78.0865 23.2586 78.0863 22.6244C78.086 21.9903 77.8285 21.3822 77.3703 20.934C76.9122 20.4858 76.2911 20.2341 75.6435 20.2344L59.7721 20.2412C59.4514 20.2414 59.1339 20.3034 58.8378 20.4237C58.5416 20.5441 58.2725 20.7203 58.0459 20.9425C57.5882 21.3911 57.3313 21.9994 57.3317 22.6336C57.332 23.2677 57.5896 23.8758 58.0478 24.3239C58.506 24.7721 59.1272 25.0237 59.7747 25.0233Z" fill="white"/>
<path fill-rule="evenodd" clip-rule="evenodd" d="M61.0378 15.4597V15.4581L69.438 15.4545C68.7904 15.4547 68.1695 15.7069 67.7118 16.1555C67.2541 16.6041 66.9971 17.2124 66.9974 17.8466C66.9977 18.4807 67.2552 19.0888 67.7133 19.537C68.1714 19.9852 68.7926 20.2368 69.4402 20.2365L61.04 20.2402V20.2392C61.6784 20.2258 62.2861 19.968 62.7327 19.521C63.1793 19.074 63.4293 18.4735 63.429 17.8481C63.4287 17.2228 63.1782 16.6225 62.7312 16.1759C62.2842 15.7293 61.6763 15.472 61.0378 15.4592V15.4597ZM99.2122 72.1676C98.9179 75.0261 96.3129 77.11 93.3939 76.8218C90.4743 76.5336 88.3467 73.9828 88.641 71.1243C88.9353 68.2659 91.5403 66.1819 94.4593 66.4701C97.3783 66.7583 99.5065 69.3092 99.2122 72.1676Z" fill="white"/>
<path d="M103.726 83.0129L95.6082 89.7935M96.4108 75.3373L103.138 79.0729L96.4108 75.3373Z" stroke="white" stroke-width="2"/>
<path fill-rule="evenodd" clip-rule="evenodd" d="M99.2898 90.0901C99.1931 91.0302 98.719 91.8941 97.9718 92.4918C97.2246 93.0895 96.2656 93.3721 95.3056 93.2774C94.3457 93.1827 93.4635 92.7184 92.8531 91.9868C92.2427 91.2551 91.9541 90.3159 92.0508 89.3759C92.1552 88.4421 92.6321 87.5864 93.3776 86.9952C94.1232 86.404 95.0771 86.1251 96.0316 86.2193C96.9861 86.3135 97.864 86.7731 98.4741 87.4981C99.0842 88.223 99.3772 89.1547 99.2893 90.0901H99.2898ZM109.227 81.3702C109.129 82.3171 108.652 83.1872 107.899 83.7892C107.146 84.3912 106.18 84.6758 105.213 84.5802C104.246 84.4847 103.357 84.0169 102.743 83.2798C102.128 82.5426 101.837 81.5966 101.935 80.6496C102.042 79.7105 102.523 78.8507 103.274 78.257C104.025 77.6632 104.984 77.3833 105.945 77.4782C106.905 77.5731 107.788 78.035 108.402 78.7637C109.017 79.4924 109.313 80.429 109.226 81.3702" fill="white"/>
<path fill-rule="evenodd" clip-rule="evenodd" d="M81.8657 101.696C81.8657 102.003 81.7411 102.297 81.5193 102.515C81.2975 102.732 80.9967 102.854 80.6831 102.854C80.3694 102.854 80.0687 102.732 79.8469 102.515C79.6251 102.297 79.5005 102.003 79.5005 101.696C79.5005 101.389 79.6251 101.094 79.8469 100.877C80.0687 100.66 80.3694 100.538 80.6831 100.538C80.9967 100.538 81.2975 100.66 81.5193 100.877C81.7411 101.094 81.8657 101.389 81.8657 101.696ZM120.898 61.9463C120.898 62.2535 120.774 62.5481 120.552 62.7654C120.33 62.9826 120.029 63.1046 119.715 63.1046C119.402 63.1046 119.101 62.9826 118.879 62.7654C118.657 62.5481 118.533 62.2535 118.533 61.9463C118.533 61.6391 118.657 61.3445 118.879 61.1273C119.101 60.91 119.402 60.788 119.715 60.788C120.029 60.788 120.33 60.91 120.552 61.1273C120.774 61.3445 120.898 61.6391 120.898 61.9463V61.9463ZM116.167 80.1995C116.167 80.5067 116.043 80.8014 115.821 81.0186C115.599 81.2358 115.298 81.3578 114.985 81.3578C114.671 81.3578 114.37 81.2358 114.148 81.0186C113.926 80.8014 113.802 80.5067 113.802 80.1995C113.802 79.8924 113.926 79.5978 114.148 79.3807C114.37 79.1635 114.671 79.0415 114.984 79.0415C115.298 79.0415 115.599 79.1635 115.821 79.3807C116.042 79.5978 116.167 79.8924 116.167 80.1995H116.167ZM95.1643 57.5578C95.1643 57.865 95.0396 58.1597 94.8178 58.377C94.5959 58.5943 94.2949 58.7163 93.9812 58.7163C93.6674 58.7163 93.3664 58.5943 93.1445 58.377C92.9227 58.1597 92.798 57.865 92.798 57.5578C92.798 57.2506 92.9226 56.9559 93.1445 56.7387C93.3663 56.5215 93.6672 56.3995 93.9809 56.3995C94.2946 56.3995 94.5955 56.5215 94.8173 56.7387C95.0391 56.9559 95.1638 57.2506 95.1638 57.5578H95.1643ZM104.943 49.4944C104.943 49.8016 104.818 50.0962 104.596 50.3134C104.375 50.5307 104.074 50.6527 103.76 50.6527C103.446 50.6527 103.145 50.5307 102.924 50.3134C102.702 50.0962 102.577 49.8016 102.577 49.4944C102.577 49.1872 102.702 48.8925 102.924 48.6753C103.145 48.4581 103.446 48.3361 103.76 48.3361C104.074 48.3361 104.375 48.4581 104.596 48.6753C104.818 48.8925 104.943 49.1872 104.943 49.4944ZM108.544 95.643C108.544 95.7951 108.514 95.9457 108.454 96.0862C108.395 96.2267 108.308 96.3544 108.198 96.4619C108.088 96.5694 107.958 96.6547 107.814 96.7129C107.671 96.7711 107.517 96.8011 107.362 96.8011C107.206 96.8011 107.053 96.7711 106.909 96.7129C106.766 96.6547 106.635 96.5694 106.525 96.4619C106.416 96.3544 106.328 96.2267 106.269 96.0862C106.21 95.9457 106.179 95.7951 106.179 95.643C106.179 95.3359 106.304 95.0413 106.525 94.8242C106.747 94.607 107.048 94.485 107.362 94.485C107.675 94.485 107.976 94.607 108.198 94.8242C108.42 95.0413 108.544 95.3359 108.544 95.643Z" stroke="white" stroke-width="2"/>
<path d="M118.532 62.5683L111.699 66.6865L103.55 62.5678V50.6545M115.116 81.3581L114.098 91.8775L108.281 94.9996L115.116 81.3581ZM93.4309 92.5582L90.048 97.673H84.0017L81.6023 101.052L93.4309 92.5582ZM94.1121 66.6954V58.458V66.6954Z" stroke="white" stroke-width="2"/>
<path fill-rule="evenodd" clip-rule="evenodd" d="M96.6841 15.3638C96.6841 6.87914 103.708 0 112.374 0C121.039 0 128.063 6.87862 128.063 15.3638C128.063 23.8496 121.039 30.7287 112.374 30.7287C103.708 30.7287 96.6841 23.8496 96.6841 15.3644" fill="#EE7201"/>
<path fill-rule="evenodd" clip-rule="evenodd" d="M96.6841 15.3638C96.6841 6.87914 103.708 0 112.374 0C121.039 0 128.063 6.87862 128.063 15.3638C128.063 23.8496 121.039 30.7287 112.374 30.7287C103.708 30.7287 96.6841 23.8496 96.6841 15.3644" fill="url(#paint1_linear)" fill-opacity="0.25"/>
<path fill-rule="evenodd" clip-rule="evenodd" d="M118.128 22L107.828 21.9369C107.719 21.9362 107.61 21.9128 107.51 21.8679C107.409 21.823 107.317 21.7576 107.24 21.6754C107.163 21.5931 107.103 21.4957 107.061 21.3886C107.02 21.2815 106.999 21.1668 107 21.0512L107.034 14.8756C107.034 14.76 107.056 14.6456 107.099 14.539C107.141 14.4324 107.203 14.3357 107.281 14.2544C107.359 14.1731 107.451 14.1088 107.552 14.0651C107.654 14.0215 107.762 13.9993 107.872 14L118.171 14.0631C118.631 14.0662 119.002 14.4626 119 14.9493L118.966 21.1244C118.965 21.24 118.943 21.3544 118.901 21.461C118.858 21.5676 118.796 21.6643 118.718 21.7456C118.641 21.8269 118.548 21.8912 118.447 21.9349C118.346 21.9785 118.237 22.0007 118.128 22Z" fill="white"/>
<path fill-rule="evenodd" clip-rule="evenodd" d="M115.105 15.2968C115.097 16.6471 114.009 17.7355 112.674 17.7282C111.34 17.7208 110.264 16.6199 110.272 15.269L110.294 11.6403C110.302 10.2899 111.391 9.20155 112.725 9.20889C114.059 9.21675 115.135 10.3177 115.127 11.668L115.106 15.2968H115.105ZM112.681 7.92193C111.705 7.9165 110.767 8.29089 110.073 8.96275C109.379 9.63461 108.986 10.5489 108.98 11.5046L108.957 15.3654C108.955 15.8387 109.047 16.3078 109.229 16.7461C109.412 17.1843 109.68 17.5831 110.02 17.9197C110.706 18.5994 111.64 18.9844 112.616 18.99C113.592 18.9955 114.53 18.6212 115.224 17.9493C115.919 17.2775 116.312 16.3631 116.317 15.4074L116.34 11.5465C116.345 10.5908 115.963 9.67206 115.277 8.99236C114.591 8.31265 113.657 7.92761 112.681 7.92193ZM89.6662 35.8247H87.5632C86.8943 35.8229 86.2534 35.5619 85.7804 35.0988C85.3074 34.6356 85.0409 34.008 85.0391 33.353C85.0409 32.698 85.3074 32.0703 85.7804 31.6072C86.2534 31.144 86.8943 30.883 87.5632 30.8812H89.6662C90.335 30.883 90.976 31.144 91.449 31.6072C91.9219 32.0703 92.1885 32.698 92.1903 33.353C92.1885 34.008 91.9219 34.6356 91.449 35.0988C90.976 35.5619 90.335 35.8229 89.6662 35.8247Z" fill="white"/>
<path fill-rule="evenodd" clip-rule="evenodd" d="M43.8642 77.3815C43.8642 77.3815 47.2766 76.8957 53.2639 76.7107C59.5403 76.5163 62.6659 77.2798 62.6659 77.2798C62.6659 77.2798 64.6442 75.2598 63.1838 72.8656C63.8677 66.5372 66.3849 55.664 63.3631 47.5703C62.7659 46.8686 61.3602 46.778 59.3305 47.2454C58.6151 47.4104 55.5061 47.1673 55.0587 47.193L46.8656 47.0111C46.8656 47.0111 44.9997 46.9221 42.566 46.7449C41.7569 46.6857 40.3041 45.863 39.6453 46.5678C39.4281 46.8 38.3477 49.5384 38.5912 54.9923L43.2119 73.6689C43.2119 73.6689 41.5311 75.5606 43.8642 77.3815Z" fill="white"/>
<path fill-rule="evenodd" clip-rule="evenodd" d="M40.5441 38.4227L40.0625 35.0706L46.4742 31.6541C46.4742 31.6541 50.3816 31.5923 50.7754 32.2856C51.1698 32.9793 47.7703 32.8059 47.7703 32.8059C47.7703 32.8059 46.7878 33.5332 46.3709 34.1159C45.4859 35.3541 45.8433 37.5067 41.9199 37.2526C41.0059 37.4014 40.5446 38.4227 40.5446 38.4227" fill="#FFC6A0"/>
<path fill-rule="evenodd" clip-rule="evenodd" d="M28.0612 40.7006C28.0612 40.7006 35.6689 45.6294 41.4246 48.2693C41.9923 48.5298 40.304 56.7493 35.061 54.4584C31.0819 52.7197 24.2721 50.0358 23.5657 46.8624C23.1858 45.1552 24.9265 42.8574 28.0612 40.7001V40.7006ZM75.912 41.9797C75.912 41.9797 72.3305 43.5512 68.5039 45.5828C66.4202 46.6884 63.0795 48.0477 61.906 49.7685C58.5754 54.6491 63.7981 55.6479 68.834 53.7001C72.4246 52.311 84.3518 47.3455 75.912 41.9797Z" fill="#FFB594"/>
<path fill-rule="evenodd" clip-rule="evenodd" d="M40.7571 34.7729L42.3946 36.8066C42.3946 36.8066 40.9053 38.2057 39.018 39.8181C35.2171 43.0643 32.167 47.3093 30.4589 48.4327C28.3366 49.8276 25.2394 50.1693 23.9428 48.3709C22.0416 45.7341 24.1911 40.7057 40.7571 34.7729Z" fill="#FFC6A0"/>
<path fill-rule="evenodd" clip-rule="evenodd" d="M34.6075 44.6013C34.6075 44.6013 33.3554 49.0098 29.8386 52.1716C30.1875 52.4588 39.7842 57.6789 41.6881 57.441C44.491 57.0905 45.1219 47.5017 42.3008 46.6827C41.9252 46.5737 39.1431 46.0088 37.5635 45.5471C37.0979 45.4109 36.7014 44.6511 35.6665 45.0567L34.607 44.6013H34.6075ZM68.6877 44.9734C68.6877 44.9734 71.5335 45.9983 72.6074 52.1701C72.3153 52.3136 63.2162 58.6415 60.9265 56.2599C57.4301 52.6233 60.5166 47.1459 63.2141 46.5082C65.7002 45.9208 65.9057 45.7903 68.6883 44.9734" fill="white"/>
<path d="M41.8349 49.6003C41.8349 49.6003 42.3224 53.4832 39.2053 56.4533" stroke="#E4EBF7" stroke-width="1.051" stroke-linecap="round" stroke-linejoin="round"/>
<path d="M46.7668 49.6128C46.7668 49.6128 48.4385 50.9605 52.2587 50.9605C56.0794 50.9605 57.1143 49.1595 57.1143 49.1595" stroke="#E4EBF7" stroke-width="0.932" stroke-linecap="round" stroke-linejoin="round"/>
<path fill-rule="evenodd" clip-rule="evenodd" d="M62.7064 35.9672L59.0778 32.7304C59.0778 32.7304 56.2123 30.4699 54.1425 32.2625C52.0732 34.0556 56.5307 33.354 57.1675 34.445C57.8042 35.536 57.6212 35.0439 56.0528 34.6787C53.0546 33.9812 54.9387 35.1466 57.6448 37.4847C58.7637 38.4515 61.3863 37.9852 61.3863 37.9852L62.7064 35.9672Z" fill="#FFC6A0"/>
<path fill-rule="evenodd" clip-rule="evenodd" d="M56.3377 47.8496L56.1787 42.1185L47.6608 42.1044L47.3772 47.5802C47.3633 47.7914 47.4682 47.9932 47.6528 48.1037C48.7492 48.7592 52.6759 50.7725 56.107 48.3259C56.2606 48.2159 56.3441 48.0356 56.3377 47.849" fill="#FFB594"/>
<path fill-rule="evenodd" clip-rule="evenodd" d="M57.5635 38.9022C58.0007 38.3012 58.089 34.1243 58.1067 32.6519C58.1083 32.5127 58.0559 32.3782 57.96 32.2756C57.8641 32.1729 57.7319 32.1098 57.5903 32.099L55.1181 31.9078C50.9924 31.3607 45.9832 32.2348 45.3507 35.2331C42.4172 38.2792 45.1254 42.173 45.1254 42.173C45.1254 42.173 46.1758 44.0416 47.4291 45.7316C47.8336 46.2771 47.642 43.7765 49.0558 42.6247C52.0118 40.2175 57.5635 38.9027 57.5635 38.9027" fill="#5C2552"/>
<path fill-rule="evenodd" clip-rule="evenodd" d="M47.3177 43.6005C47.3177 43.6005 48.7545 46.8503 53.5261 47.018C57.7106 47.1647 58.3276 43.3458 57.5041 37.8453L57.0177 34.9722C53.7439 33.4541 48.7352 35.2551 48.7352 35.2551C48.7352 35.2551 48.427 36.3262 48.6335 38.1393C47.4156 39.2219 47.6575 41.0831 47.6575 41.0831C47.6575 41.0831 47.1732 40.076 46.598 39.8669C46.1378 39.6992 45.5829 39.9135 45.3554 40.9044C44.7989 43.3316 47.3177 43.6005 47.3177 43.6005Z" fill="#FFC6A0"/>
<path d="M53.9624 40.4003L54.8726 39.9141L54.3295 37.6483L54.6902 36.9115" stroke="#DB836E" stroke-width="1.145" stroke-linecap="round" stroke-linejoin="round"/>
<path fill-rule="evenodd" clip-rule="evenodd" d="M56.479 38.8247C56.4673 39.1983 56.2372 39.4949 55.9653 39.4865C55.6924 39.4781 55.4816 39.1684 55.4934 38.7948C55.5046 38.4212 55.7352 38.1251 56.0071 38.133C56.28 38.1413 56.4908 38.451 56.479 38.8247ZM52.2228 38.9593C52.211 39.3329 51.9809 39.629 51.7085 39.6211C51.4361 39.6128 51.2248 39.3031 51.2366 38.9295C51.2483 38.5558 51.4784 38.2592 51.7508 38.2676C52.0237 38.276 52.2345 38.5852 52.2228 38.9593Z" fill="#552950"/>
<path d="M48.7659 45.4763C48.7659 45.4763 51.5854 48.0738 55.5506 46.6957" stroke="#DB836E" stroke-width="1.145" stroke-linecap="round" stroke-linejoin="round"/>
<path fill-rule="evenodd" clip-rule="evenodd" d="M53.3913 42.9176C53.3913 42.9176 51.4692 43.0392 52.6207 41.4556C53.4716 40.6717 55.2412 41.2146 55.2412 41.2146C55.2412 41.2146 55.8598 43.2613 53.3913 42.9176Z" fill="#DB836E"/>
<path d="M50.2378 37.7151C50.2378 37.7151 51.5713 37.1159 52.7946 37.1531M55.0522 36.9949C55.0522 36.9949 56.3809 37.4349 56.8726 37.3694L55.0522 36.9949Z" stroke="#5C2552" stroke-width="1.526" stroke-linecap="round" stroke-linejoin="round"/>
<path d="M53.1565 43.8693C53.1565 43.8693 54.1791 43.9484 54.4991 43.7362M46.1909 40.5444C46.1909 40.5444 46.7052 41.005 46.9711 41.648C46.7694 41.8995 46.4183 42.2516 46.8448 42.5959L46.1909 40.5444Z" stroke="#DB836E" stroke-width="1.145" stroke-linecap="round" stroke-linejoin="round"/>
<path d="M53.5994 60.6909L58.972 59.6387M46.9731 60.6909L55.3905 59.1125L46.9731 60.6909Z" stroke="#E4EBF7" stroke-width="1.051" stroke-linecap="round" stroke-linejoin="round"/>
<path d="M35.589 45.4642C35.589 45.4642 34.7339 50.0912 32.0054 52.8412" stroke="#E4EBF7" stroke-width="1.114" stroke-linecap="round" stroke-linejoin="round"/>
<path d="M68.6602 46.0779C68.6602 46.0779 70.2725 48.2373 70.8327 52.2533" stroke="#E4EBF7" stroke-width="1.051" stroke-linecap="round" stroke-linejoin="round"/>
<path d="M34.2954 44.4441C34.2954 44.4441 31.0687 49.638 27.0142 49.6333" stroke="#DB836E" stroke-width="0.795" stroke-linecap="round" stroke-linejoin="round"/>
<path fill-rule="evenodd" clip-rule="evenodd" d="M60.1282 34.5367L60.0522 37.3244C60.0522 37.3244 63.2592 39.6677 66.4442 42.1463C68.8425 44.0128 71.2002 46.0527 72.3224 46.6852C74.893 48.1346 77.0848 48.4432 78.2493 47.6326C80.4277 46.1161 80.5893 42.4565 73.8956 39.6347C71.6101 38.6716 65.2567 36.302 60.1282 34.5361" fill="#FFC6A0"/>
<path d="M69.8491 44.7961C69.8491 44.7961 72.3042 47.8128 76.0666 48.0523" stroke="#DB836E" stroke-width="0.75" stroke-linecap="round" stroke-linejoin="round"/>
<path d="M65.1272 55.4031C65.1272 55.4031 64.9169 59.8907 64.4102 62.5358" stroke="#E4EBF7" stroke-width="1.051" stroke-linecap="round" stroke-linejoin="round"/>
<path d="M61.9574 84.6331C61.9574 84.6331 60.047 83.8534 60.5243 80.8917" stroke="#648BD8" stroke-width="1.051" stroke-linecap="round" stroke-linejoin="round"/>
<path fill-rule="evenodd" clip-rule="evenodd" d="M54.3243 152.091C54.3243 152.091 56.6392 153.168 58.2884 152.63C59.8092 152.134 60.7307 152.983 62.1049 153.252C63.4801 153.521 65.8105 153.832 68.4042 152.587C68.3485 149.678 64.691 150.486 61.9572 149.043C60.5755 148.315 59.9173 146.55 60.0174 144.399H54.9493C54.9493 144.399 54.1991 149.951 54.3238 152.091" fill="#CBD1D1"/>
<path fill-rule="evenodd" clip-rule="evenodd" d="M54.3115 152C54.3115 152 55.6209 152.671 57.9551 152.345C59.6038 152.114 59.9564 152.599 61.9572 152.889C63.958 153.179 67.7375 152.852 68.3304 152.418C68.5524 152.998 68.1447 153.506 68.1447 153.506C68.1447 153.506 67.3297 153.824 65.551 153.941C64.4567 154.013 62.4243 154.095 61.4504 153.676C60.4872 152.95 58.6218 152.671 58.3629 153.548C56.2508 154.05 54.3977 153.397 54.3977 153.397L54.3121 152H54.3115Z" fill="#2B0849"/>
<path fill-rule="evenodd" clip-rule="evenodd" d="M58.2327 144.725H59.9001C59.9001 144.725 59.845 148.263 62.3456 149.242C59.845 149.569 57.7329 148.026 58.2327 144.725Z" fill="#A4AABA"/>
<path fill-rule="evenodd" clip-rule="evenodd" d="M30.8491 142.802C30.8491 142.802 29.7136 146.716 28.4314 149.298C27.4624 151.249 26.1545 153.253 31.3772 153.253C34.9614 153.253 36.2039 153 35.3793 149.769C34.5547 146.539 35.5227 142.802 35.5227 142.802H30.8491Z" fill="#CBD1D1"/>
<path fill-rule="evenodd" clip-rule="evenodd" d="M27.5799 151.983C27.5799 151.983 28.7095 152.6 31.1555 152.6C34.4346 152.6 35.6023 151.729 35.6023 151.729C35.6023 151.729 35.926 152.317 35.2684 152.871C34.7332 153.323 33.3291 153.711 31.285 153.688C29.0498 153.663 28.1407 153.39 27.6537 153.072C27.209 152.781 27.2834 152.237 27.5799 151.983Z" fill="#2B0849"/>
<path fill-rule="evenodd" clip-rule="evenodd" d="M31.3218 143.807C31.3218 143.807 31.34 144.608 31.1532 145.353C30.9649 146.103 30.5716 146.991 30.5437 147.538C30.5127 148.146 32.9892 148.372 33.3231 147.556C33.6565 146.739 34.0204 144.163 34.3543 143.728C34.6871 143.292 31.7108 142.609 31.3218 143.806" fill="#A4AABA"/>
<path fill-rule="evenodd" clip-rule="evenodd" d="M53.9848 145.157L61.1049 145.206C61.1049 145.206 61.7958 116.79 62.0912 111.64C62.3865 106.49 64.101 89.0396 62.6247 78.7387L55.9465 78.4033L43.7861 78.8099C43.7861 78.8099 43.5544 80.8766 43.1493 84.0086C43.1161 84.2669 42.787 84.4477 42.7511 84.7202C42.711 85.0252 42.9759 85.426 42.9213 85.7452C41.6638 93.0828 39.5271 102.999 38.2674 110.072C38.2054 110.42 37.6109 110.598 37.4915 111.475C37.4701 111.632 37.6039 112.269 37.5515 112.41C33.8934 122.179 31.7241 137.344 29.9529 144.663L37.727 144.656C37.727 144.656 38.8962 140.189 39.8717 135.812C41.3679 129.096 52.1723 91.5056 52.1723 91.5056L53.7777 91.2346L54.3326 115.391C54.3326 115.391 54.2132 116.035 54.5113 116.443C54.8099 116.853 54.2138 117.029 54.3026 117.614L54.5113 118.548C54.5113 118.548 54.2726 122.29 54.034 124.745C53.7953 127.2 53.9848 145.157 53.9848 145.157Z" fill="#7BB2F9"/>
<path d="M57.5515 117.341C57.5515 117.341 59.0274 116.763 60.7991 115.317M41.4382 115.509C42.0515 115.558 43.5872 114.456 45.1391 112.936L41.4382 115.509Z" stroke="#648BD8" stroke-width="1.051" stroke-linecap="round" stroke-linejoin="round"/>
<path d="M58.0376 115.755C58.0376 115.755 59.514 115.177 61.2857 113.731" stroke="#648BD8" stroke-linecap="round" stroke-linejoin="round"/>
<path d="M30.8118 143.022H37.8956M40.7215 117.145C40.7215 117.145 42.1171 116.837 44.1837 115.392L40.7215 117.145ZM46.7313 79.0305C46.5869 80.6486 46.8903 83.473 44.4223 83.7848L46.7313 79.0305ZM56.0953 78.1161C56.0953 78.1161 56.1541 85.4186 55.4071 85.9673C54.2261 86.8345 53.8152 86.9807 53.8152 86.9807L56.0953 78.1161ZM54.0538 78.4069C54.0538 78.4069 54.0725 85.1194 53.417 91.1114L54.0538 78.4069ZM50.7982 91.6826C50.7982 91.6826 54.6371 90.8154 55.8175 90.8154L50.7982 91.6826ZM40.4925 107.292C40.3234 108.104 40.15 108.899 39.9718 109.669C39.9718 109.669 39.1959 110.623 39.4351 111.637C39.6738 112.65 38.9305 112.703 36.7809 119.64C35.8787 122.553 34.3922 129.329 33.4028 134.022C33.361 134.221 31.2527 143.486 31.2126 143.676L40.4925 107.292ZM41.2266 103.094C41.0767 103.922 40.9203 104.748 40.7574 105.572L41.2266 103.094ZM44.9002 79.3417L44.2634 84.7982C44.2634 84.7982 43.6796 84.8758 43.998 85.9667C44.0574 86.6689 42.5746 94.1894 41.2406 101.827L44.9002 79.3417Z" stroke="#648BD8" stroke-width="1.051" stroke-linecap="round" stroke-linejoin="round"/>
<path fill-rule="evenodd" clip-rule="evenodd" d="M62.8096 77.2505C62.8096 77.2505 53.7368 75.6329 43.7061 77.3548C43.7902 78.6653 43.7051 79.5179 43.7051 79.5179C43.7051 79.5179 51.5215 78.0496 62.6887 79.3554C62.823 78.1282 62.8096 77.2505 62.8096 77.2505Z" fill="#192064"/>
<path fill-rule="evenodd" clip-rule="evenodd" d="M57.5302 78.7858L57.5324 76.226C57.5329 76.1165 57.49 76.0111 57.4128 75.9319C57.3355 75.8528 57.2299 75.806 57.1182 75.8016C55.819 75.7534 54.4212 75.745 52.947 75.7942C52.8347 75.7983 52.7283 75.8447 52.6501 75.9238C52.5719 76.0029 52.528 76.1086 52.5275 76.2187L52.5259 78.7758C52.5259 79.0148 52.7244 79.2055 52.9684 79.1992C54.3396 79.1655 55.7114 79.1685 57.0824 79.2081C57.1403 79.21 57.198 79.2005 57.2522 79.1802C57.3063 79.1598 57.3557 79.129 57.3975 79.0897C57.4392 79.0503 57.4725 79.0031 57.4953 78.9509C57.5181 78.8987 57.53 78.8425 57.5302 78.7858Z" fill="white"/>
<path fill-rule="evenodd" clip-rule="evenodd" d="M56.9368 78.3L56.9379 76.6965C56.9383 76.6095 56.9042 76.5256 56.8427 76.4627C56.7812 76.3998 56.6971 76.3629 56.6082 76.3596C55.5679 76.3264 54.5268 76.3249 53.4864 76.3549C53.3969 76.3577 53.312 76.3944 53.2496 76.4572C53.1871 76.5201 53.1519 76.6041 53.1514 76.6918L53.1509 78.2932C53.1509 78.4818 53.3066 78.6327 53.4992 78.6285C54.4517 78.6076 55.4834 78.6071 56.5825 78.6348C56.7752 78.6395 56.9368 78.4886 56.9368 78.2995" fill="#192064"/>
<path d="M54.6904 91.1896L55.1683 114.456C55.1683 114.456 55.5263 115.274 55.0484 115.859C54.5711 116.444 56.3621 116.21 55.5263 117.028C54.6904 117.847 56.0041 117.613 55.5263 118.782C55.2095 119.558 54.9976 129.779 54.943 137.099M54.3057 143.542H60.8726H54.3057ZM54.9301 140.997C54.9334 142.762 54.9515 144.015 54.989 144.387L54.9301 140.997ZM54.9382 137.879C54.9333 138.681 54.9301 139.441 54.9296 140.139L54.9382 137.879Z" stroke="#648BD8" stroke-width="1.051" stroke-linecap="round" stroke-linejoin="round"/>
<defs>
<linearGradient id="paint0_linear" x1="66.9998" y1="7" x2="66.9998" y2="127" gradientUnits="userSpaceOnUse">
<stop stop-color="white"/>
<stop offset="1" stop-color="white" stop-opacity="0"/>
</linearGradient>
<linearGradient id="paint1_linear" x1="112.374" y1="0" x2="112.374" y2="30.7287" gradientUnits="userSpaceOnUse">
<stop stop-color="white"/>
<stop offset="1" stop-color="white" stop-opacity="0"/>
</linearGradient>
</defs>
</svg>
