<svg width="24" height="24" xmlns="http://www.w3.org/2000/svg">
 <title/>

 <g>
  <title>background</title>
  <rect fill="none" id="canvas_background" height="402" width="582" y="-1" x="-1"/>
 </g>
 <g>
  <title>Layer 1</title>
  <path fill="#ff4a17" id="svg_1" d="m20.66,7l1.19,-1.19a0.47,0.47 0 0 0 0.15,-0.5a0.5,0.5 0 0 0 -0.5,-0.31l-2.5,0l0,-2.5a0.5,0.5 0 0 0 -0.31,-0.5a0.48,0.48 0 0 0 -0.54,0.11l-1.15,1.23a9.89,9.89 0 0 0 -5,-1.34a10.06,10.06 0 1 0 8.66,5zm-2.16,-1l1.79,0l-2,2l-2.29,0l0,-2.29l2,-2l0,1.79a0.5,0.5 0 0 0 0.5,0.5zm-0.5,6a6,6 0 1 1 -3,-5.18l0,1.47l-0.56,0.56a4,4 0 1 0 0.71,0.71l0.56,-0.56l1.47,0a6,6 0 0 1 0.82,3zm-3,0a3,3 0 1 1 -3,-3a3,3 0 0 1 1.73,0.56l-2.08,2.09a0.48,0.48 0 0 0 0,0.7a0.48,0.48 0 0 0 0.7,0l2.09,-2.08a3,3 0 0 1 0.56,1.73zm-3,9a9,9 0 1 1 4.22,-16.93l-1.07,1.08a0.47,0.47 0 0 0 -0.15,0.35l0,0.18a7,7 0 1 0 3.32,3.32l0.18,0a0.47,0.47 0 0 0 0.35,-0.15l1.08,-1.07a9,9 0 0 1 -7.93,13.22z"/>
 </g>
</svg>